# xmcd
#
# Track frame offsets:
#	150
#	18885
#	37079
#	67377
#	79109
#	96750
#	113557
#	133032
#	148934
#	166089
#	179191
#
# Disc length: 2538 seconds
#
# Revision: 1
# Processed by: cddbd v1.5.2PL0 Copyright (c) Steve Scherf et al.
# Submitted via: audiograbber 1.83.01
#
DISCID=9d09e80b
DTITLE=Muddy Feet - Swampland
DYEAR=2008
DGENRE=Blues
TTITLE0=No more love
TTITLE1=Run to San Remo
TTITLE2=Rolling tears
TTITLE3=Partytime
TTITLE4=Boogie Bros. Blues
TTITLE5=Crazy boy
TTITLE6=Sneaking love
TTITLE7=Zauber in ihren Augen
TTITLE8=Mojo Boogie
TTITLE9=Real stuff
TTITLE10=Voodoo music
EXTD=Power Swamp Bluesrock
EXTT0=
EXTT1=
EXTT2=
EXTT3=
EXTT4=
EXTT5=
EXTT6=
EXTT7=
EXTT8=
EXTT9=
EXTT10=
PLAYORDER=
